<?xml version="1.0" encoding="utf-8"?>
<!-- Generator: Adobe Illustrator 22.0.1, SVG Export Plug-In . SVG Version: 6.00 Build 0)  -->
<svg version="1.1" id="Calque_1" xmlns="http://www.w3.org/2000/svg" xmlns:xlink="http://www.w3.org/1999/xlink" x="0px" y="0px"
	 viewBox="0 0 64 64" style="enable-background:new 0 0 64 64;" xml:space="preserve">
<style type="text/css">
	.st0{fill:#FFFFFF;}
</style>
<path class="st0" d="M44.1,39.1c2.8,0,5.5,0,8.3,0c0.4-3.2,0.8-6.4,1.2-9.6c-3.2,0-6.3,0-9.5,0c0-0.1-0.1-0.2-0.1-0.3
	c0-2.2,0-4.5,0.1-6.8c0-0.9,0.3-1.8,0.9-2.5c0.7-0.9,1.8-1.2,2.8-1.2c1.9-0.1,3.8-0.1,5.6-0.1c0.2,0,0.3,0,0.5,0c0-2.9,0-5.7,0-8.6
	c-0.5-0.1-1-0.2-1.4-0.2c-2.7-0.2-5.5-0.4-8.3-0.1c-5.2,0.5-9.1,4.2-10,9.3c-0.2,1.1-0.3,2.2-0.3,3.4c-0.1,2.1,0,4.3,0,6.5
	c0,0.2,0,0.3,0,0.5c-2.8,0-5.5,0-8.3,0c0,3.3,0,6.5,0,9.6c2.8,0,5.5,0,8.3,0c0,8.2,0,16.4,0,24.7c-0.1,0-0.2,0.1-0.3,0.1
	c-7.4,0-14.7,0.1-22.1,0C5.7,63.7,0.6,59.1-0.1,53.4C0,52.8,0,52.2,0,51.6c0-13.1,0-26.2,0-39.3C0,6.7,3.6,1.8,9,0.4
	C9.9,0.2,10.9,0,11.8,0c13.3,0,26.6,0,40,0c4.1,0,7.3,1.9,9.8,5.1c1.6,2.1,2.3,4.4,2.3,7c0,13.3,0,26.5,0,39.8
	c0,6.6-5.2,11.1-9.8,11.9c-0.7,0.1-1.5,0.2-2.3,0.2c-2.5,0.1-5,0-7.5,0c-0.1,0-0.2,0-0.3,0C44.1,55.7,44.1,47.4,44.1,39.1z"/>
</svg>
