<?xml version="1.0" encoding="utf-8"?>
<!-- Generator: Adobe Illustrator 22.0.1, SVG Export Plug-In . SVG Version: 6.00 Build 0)  -->
<svg version="1.1" id="Calque_1" xmlns="http://www.w3.org/2000/svg" xmlns:xlink="http://www.w3.org/1999/xlink" x="0px" y="0px"
	 viewBox="0 0 120 120" style="enable-background:new 0 0 120 120;" xml:space="preserve">
<style type="text/css">
	.st0{fill:#FFFFFF;}
</style>
<g>
	<path class="st0" d="M120,41.2c0,19.4,0,38.8,0,58.2c-2,5.6-6.2,7.6-12.3,7.6c-32-0.1-64-0.1-96,0C5.9,107,2,104.9,0,99.8
		c0-19.5,0-39.1,0-58.6c10.9,7.4,21.6,15.1,32.6,22.2c7.3,4.7,15,8.7,22.6,12.9c3,1.7,6.2,1.6,9.3,0.1c4.9-2.5,10-4.7,14.6-7.7
		C92.9,59.7,106.4,50.4,120,41.2z"/>
	<path class="st0" d="M0,26.9c0-2.3,0-4.5,0-6.8c2-5,5.8-7.1,11.6-7.1c32.4,0.1,64.8,0,97.3,0.1c1.1,0,2.1,0,3.2,0.2
		c4.3,0.8,6.6,3.6,8,7.3c0,2.3,0,4.5,0,6.8c-0.4,0.2-0.8,0.4-1.2,0.6c-4.9,3.6-9.8,7.3-14.8,10.8C92.8,46.6,81.7,54.5,69.5,61
		c-8.9,4.8-10.4,4.7-19.2-0.1c-12.5-6.9-24-15.1-35.6-23.4C9.8,34,4.9,30.5,0,26.9z"/>
</g>
</svg>
