<?xml version="1.0" encoding="utf-8"?>
<!-- Generator: Adobe Illustrator 22.0.1, SVG Export Plug-In . SVG Version: 6.00 Build 0)  -->
<svg version="1.1" id="Calque_1" xmlns="http://www.w3.org/2000/svg" xmlns:xlink="http://www.w3.org/1999/xlink" x="0px" y="0px"
	 viewBox="0 0 120 120" style="enable-background:new 0 0 120 120;" xml:space="preserve">
<style type="text/css">
	.st0{fill:#FFFFFF;}
</style>
<g>
	<path class="st0" d="M60,119.8c-6.1,0-12.2,0.1-18.3,0c-4.2-0.1-8.4-0.2-12.6-0.8c-9.7-1.5-17.6-5.8-23.1-14
		c-2.7-4.1-4.2-8.6-5-13.4C0.1,86.3,0,81.1,0,75.9c0-11.5,0-23.1,0-34.6c0-4.1,0.2-8.1,0.8-12.1c1.4-9.4,5.5-17.1,13.4-22.7
		c4.1-2.8,8.6-4.4,13.5-5.3c4.6-0.9,9.3-1,14-1C53.9,0,66.1,0,78.3,0c4.2,0,8.4,0.2,12.6,0.8c9.6,1.4,17.5,5.7,23,13.9
		c2.8,4.1,4.3,8.7,5.1,13.5c0.9,5.2,0.9,10.4,1,15.7c0,11.5,0,23.1,0,34.6c0,4.1-0.2,8.2-0.8,12.2c-1.4,9.1-5.3,16.7-12.8,22.2
		c-4,2.9-8.6,4.6-13.4,5.6c-3.6,0.7-7.3,1-11,1c-7.3,0.1-14.6,0.2-21.9,0.3C60,119.9,60,119.9,60,119.8z M109.4,57
		c-0.1-5.4-0.3-13.8-0.5-22.1c-0.1-3.2-0.6-6.3-1.6-9.3c-1.8-5.2-5-9.1-9.9-11.6c-3-1.5-6.2-2.4-9.5-2.6c-3.9-0.3-7.9-0.5-11.8-0.6
		c-12,0-24,0-36,0.1c-3.4,0-6.9,0.2-10.3,0.8c-3.4,0.6-6.6,1.7-9.5,3.7c-4.6,3.2-7.2,7.7-8.3,13.1c-0.8,3.8-1,7.6-1,11.4
		c-0.2,14.3-0.3,28.6,0.1,42.9c0.1,2.9,0.3,5.7,0.9,8.5c1.2,5.4,3.8,10,8.4,13.2c3.5,2.5,7.6,3.6,11.8,4c3.8,0.3,7.6,0.5,11.4,0.6
		c10,0.1,20.1,0.1,30.2,0c5.3,0,10.7,0,16-0.8c3.5-0.5,6.8-1.6,9.8-3.5c4.8-3.2,7.5-7.8,8.7-13.4c0.8-3.9,1-7.8,1-11.8
		C109.3,73.1,109.3,66.5,109.4,57z"/>
	<path class="st0" d="M60,90.7c-17,0-30.9-13.9-30.8-30.8c0-17,13.8-30.8,30.8-30.8c17,0,30.9,13.9,30.8,30.8
		C90.8,76.9,77,90.7,60,90.7z M60,80c11.1,0,20.1-9,20.1-20c0-11.1-8.9-20.1-20-20.1c-11.1,0-20.1,8.9-20.1,20
		C39.9,71,48.9,80,60,80z"/>
	<path class="st0" d="M92,35.1c-4,0-7.2-3.2-7.2-7.2c0-4,3.2-7.2,7.3-7.2c4,0,7.1,3.3,7.1,7.3C99.2,31.9,95.9,35.1,92,35.1z"/>
</g>
</svg>
