<?xml version="1.0" encoding="utf-8"?>
<!-- Generator: Adobe Illustrator 22.0.1, SVG Export Plug-In . SVG Version: 6.00 Build 0)  -->
<svg version="1.1" id="Calque_1" xmlns="http://www.w3.org/2000/svg" xmlns:xlink="http://www.w3.org/1999/xlink" x="0px" y="0px"
	 viewBox="0 0 64 64" style="enable-background:new 0 0 64 64;" xml:space="preserve">
<style type="text/css">
	.st0{fill:none;stroke:#FFFFFF;stroke-width:4;stroke-linecap:round;stroke-linejoin:round;stroke-miterlimit:10;}
</style>
<g>
	<path class="st0" d="M5.2,20.4c-3.5,0-4,4.8,0,4.8s50.8,0,54.2,0c3.3,0,3.8-4.8,0-4.8"/>
	<g>
		<path class="st0" d="M6.9,25.9c1.7,2.3,2.3,3.7,1.8,6.6c-1,5.2-4.4,9.2-3.7,14.7c0.4,2.7,1.4,5.4,3,7.7"/>
		<path class="st0" d="M12.8,25.9c1.7,2.3,2.3,3.7,1.8,6.6c-1,5.2-4.4,9.2-3.7,14.7c0.4,2.7,1.4,5.4,3,7.7"/>
		<path class="st0" d="M58.7,25.7c-1.7,2.3-2.3,3.7-1.8,6.6c1,5.2,4.4,9.2,3.7,14.7c-0.4,2.7-1.4,5.4-3,7.7"/>
		<path class="st0" d="M52,25.9c-1.7,2.3-2.3,3.7-1.8,6.6c1,5.2,4.4,9.2,3.7,14.7c-0.4,2.7-1.4,5.4-3,7.7"/>
		<path class="st0" d="M19.5,25.9c1.5,6.1-0.2,11.3-1.3,17.2c-0.5,2.7-0.9,9.7,1.9,11.6"/>
		<path class="st0" d="M44.6,25.8c-1.5,6.1,0.2,11.3,1.3,17.2c0.5,2.7,0.9,9.7-1.9,11.6"/>
		<path class="st0" d="M25.7,25.7c0.6,3.9,0.7,9.9,0,14.6s-1.9,9.4,0.5,14.5"/>
		<path class="st0" d="M39,25.7c-0.6,3.9-0.7,9.9,0,14.6s1.9,9.4-0.5,14.5"/>
		<line class="st0" x1="32.2" y1="25.9" x2="32.2" y2="54.9"/>
		<path class="st0" d="M59.8,60.7c-10.5,0.3-55,0-55,0v-5.2h55L59.8,60.7z"/>
	</g>
</g>
</svg>
